<svg width="16" height="16" viewBox="0 0 16 16" fill="none" xmlns="http://www.w3.org/2000/svg">
<rect y="1" width="16" height="15" rx="1.70759" fill="white"/>
<path d="M10.7113 14H5.30077V13.2971C5.78026 13.2971 6.12353 13.259 6.33058 13.1827C6.54853 13.0955 6.68475 12.9375 6.73923 12.7087C6.79372 12.4689 6.82096 12.1147 6.82096 11.6462V5.64711C6.82096 5.21122 6.78827 4.8734 6.72289 4.63365C6.6684 4.39391 6.53218 4.225 6.31423 4.12692C6.10718 4.01795 5.76936 3.96346 5.30077 3.96346V3.26058H10.7767V3.96346C10.2972 3.96346 9.94853 4.01795 9.73058 4.12692C9.51263 4.225 9.37641 4.39936 9.32193 4.65C9.27834 4.88974 9.25654 5.22211 9.25654 5.64711V11.6462C9.25654 12.1038 9.27834 12.4526 9.32193 12.6923C9.37641 12.9321 9.50718 13.0955 9.71423 13.1827C9.92128 13.259 10.2537 13.2971 10.7113 13.2971V14Z" fill="#009398"/>
</svg>
