<svg
  width="22"
  height="16"
  viewBox="0 0 22 16"
  fill="none"
  xmlns="http://www.w3.org/2000/svg"
>
<rect
    x="0.25"
    y="0.25"
    width="21.5"
    height="15.2143"
    rx="1.75"
    fill="white"
    stroke="#F5F5F5"
    stroke-width="0.5"
  />
<mask
    id="mask0_1075_3986"
    style="mask-type:alpha"
    maskUnits="userSpaceOnUse"
    x="0"
    y="0"
    width="22"
    height="16"
  >
<rect
      x="0.25"
      y="0.25"
      width="21.5"
      height="15.2143"
      rx="1.75"
      fill="white"
      stroke="white"
      stroke-width="0.5"
    />
</mask>
<g mask="url(#mask0_1075_3986)">
<path
      fill-rule="evenodd"
      clip-rule="evenodd"
      d="M0 5.23809H22V0H0V5.23809Z"
      fill="#04AAC8"
    />
<path
      fill-rule="evenodd"
      clip-rule="evenodd"
      d="M0 15.7142H22V10.4761H0V15.7142Z"
      fill="#23C840"
    />
<path
      fill-rule="evenodd"
      clip-rule="evenodd"
      d="M3.66664 4.19071C3.98979 4.19071 4.29016 4.09317 4.53991 3.92592C4.51097 3.92783 4.48178 3.9288 4.45236 3.9288C3.72913 3.9288 3.14283 3.34251 3.14283 2.61928C3.14283 1.89605 3.72913 1.30976 4.45236 1.30976C4.48178 1.30976 4.51097 1.31073 4.53991 1.31264C4.29016 1.14539 3.98979 1.04785 3.66664 1.04785C2.79877 1.04785 2.09521 1.7514 2.09521 2.61928C2.09521 3.48716 2.79877 4.19071 3.66664 4.19071ZM6.28569 3.6669C6.28569 3.95619 6.05117 4.19071 5.76188 4.19071C5.47259 4.19071 5.23807 3.95619 5.23807 3.6669C5.23807 3.37761 5.47259 3.14309 5.76188 3.14309C6.05117 3.14309 6.28569 3.37761 6.28569 3.6669ZM7.85712 2.09547C8.14641 2.09547 8.38093 1.86095 8.38093 1.57166C8.38093 1.28237 8.14641 1.04785 7.85712 1.04785C7.56783 1.04785 7.33331 1.28237 7.33331 1.57166C7.33331 1.86095 7.56783 2.09547 7.85712 2.09547ZM10.4762 1.57166C10.4762 1.86095 10.2416 2.09547 9.95236 2.09547C9.66307 2.09547 9.42855 1.86095 9.42855 1.57166C9.42855 1.28237 9.66307 1.04785 9.95236 1.04785C10.2416 1.04785 10.4762 1.28237 10.4762 1.57166ZM9.95236 4.19071C10.2416 4.19071 10.4762 3.95619 10.4762 3.6669C10.4762 3.37761 10.2416 3.14309 9.95236 3.14309C9.66307 3.14309 9.42855 3.37761 9.42855 3.6669C9.42855 3.95619 9.66307 4.19071 9.95236 4.19071ZM8.38093 3.6669C8.38093 3.95619 8.14641 4.19071 7.85712 4.19071C7.56783 4.19071 7.33331 3.95619 7.33331 3.6669C7.33331 3.37761 7.56783 3.14309 7.85712 3.14309C8.14641 3.14309 8.38093 3.37761 8.38093 3.6669Z"
      fill="white"
    />
</g>
</svg>
