<svg width="150" height="16" viewBox="0 0 150 16" fill="none" xmlns="http://www.w3.org/2000/svg">
<path d="M3.40819 0.875V15.125H0V0.875H3.40819Z" fill="#109EF4"/>
<path d="M17.5487 0.875V15.125H14.6569L9.04548 6.90063H8.95597V15.125H5.54778V0.875H8.48089L14.0304 9.08545H14.1474V0.875H17.5487Z" fill="#109EF4"/>
<path d="M19.2305 3.67212V0.875H31.1488V3.67212H26.8731V15.125H23.5131V3.67212H19.2305Z" fill="#109EF4"/>
<path d="M32.8133 15.125V0.875H42.6454V3.67212H36.2215V6.59448H42.1428V9.39856H36.2215V12.3279H42.6454V15.125H32.8133Z" fill="#109EF4"/>
<path d="M48.2293 0.875L50.8044 5.37683H50.9146L53.5172 0.875H57.3316L53.0765 8L57.4693 15.125H53.5585L50.9146 10.5745H50.8044L48.1605 15.125H44.2772L48.6493 8L44.3874 0.875H48.2293Z" fill="#109EF4"/>
<path d="M64.8968 6.69189V9.3081H58.3696V6.69189H64.8968Z" fill="#109EF4"/>
<path d="M67.2739 0.875H71.4946L75.0749 9.69775H75.2401L78.8204 0.875H83.0411V15.125H79.7224V6.37183H79.6054L76.2178 15.0345H74.0972L70.7096 6.32312H70.5926V15.125H67.2739V0.875Z" fill="#109EF4"/>
<path d="M88.2171 15.125H84.5541L89.3118 0.875H93.8492L98.6069 15.125H94.9439L91.6321 4.46533H91.522L88.2171 15.125ZM87.7282 9.51685H95.3846V12.1331H87.7282V9.51685Z" fill="#109EF4"/>
<path d="M100.125 15.125V0.875H105.95C107.006 0.875 107.917 1.0675 108.683 1.45251C109.455 1.83289 110.049 2.38025 110.467 3.0946C110.884 3.80432 111.093 4.64624 111.093 5.62036C111.093 6.6084 110.88 7.448 110.453 8.13916C110.026 8.82568 109.42 9.34985 108.635 9.71167C107.85 10.0688 106.921 10.2474 105.847 10.2474H102.163V7.53381H105.213C105.727 7.53381 106.157 7.46655 106.501 7.33203C106.85 7.19287 107.114 6.98413 107.293 6.70581C107.472 6.42285 107.561 6.06103 107.561 5.62036C107.561 5.17969 107.472 4.81555 107.293 4.52795C107.114 4.23572 106.85 4.0177 106.501 3.8739C106.152 3.72546 105.723 3.65125 105.213 3.65125H103.533V15.125H100.125ZM108.064 8.6123L111.575 15.125H107.857L104.415 8.6123H108.064Z" fill="#109EF4"/>
<path d="M112.963 15.125V0.875H116.371V6.90063H116.557L121.218 0.875H125.232L120.233 7.23462L125.322 15.125H121.246L117.734 9.5238L116.371 11.2633V15.125H112.963Z" fill="#109EF4"/>
<path d="M126.576 15.125V0.875H136.409V3.67212H129.985V6.59448H135.906V9.39856H129.985V12.3279H136.409V15.125H126.576Z" fill="#109EF4"/>
<path d="M138.082 3.67212V0.875H150V3.67212H145.724V15.125H142.364V3.67212H138.082Z" fill="#109EF4"/>
</svg>
