<svg width="28" height="21" viewBox="0 0 28 21" fill="none" xmlns="http://www.w3.org/2000/svg">
<rect y="0.5" width="28" height="20" rx="2" fill="white"/>
<mask id="mask0_326_29451" style="mask-type:alpha" maskUnits="userSpaceOnUse" x="0" y="0" width="28" height="21">
<rect y="0.5" width="28" height="20" rx="2" fill="white"/>
</mask>
<g mask="url(#mask0_326_29451)">
<path fill-rule="evenodd" clip-rule="evenodd" d="M28 0.5H0V1.83333H28V0.5ZM28 3.16667H0V4.5H28V3.16667ZM0 5.83333H28V7.16667H0V5.83333ZM28 8.5H0V9.83333H28V8.5ZM0 11.1667H28V12.5H0V11.1667ZM28 13.8333H0V15.1667H28V13.8333ZM0 16.5H28V17.8333H0V16.5ZM28 19.1667H0V20.5H28V19.1667Z" fill="#D02F44"/>
<rect y="0.5" width="12" height="9.33333" fill="#46467F"/>
<g filter="url(#filter0_d_326_29451)">
<path fill-rule="evenodd" clip-rule="evenodd" d="M2.66665 2.49992C2.66665 2.86811 2.36817 3.16659 1.99998 3.16659C1.63179 3.16659 1.33331 2.86811 1.33331 2.49992C1.33331 2.13173 1.63179 1.83325 1.99998 1.83325C2.36817 1.83325 2.66665 2.13173 2.66665 2.49992ZM5.33331 2.49992C5.33331 2.86811 5.03484 3.16659 4.66665 3.16659C4.29846 3.16659 3.99998 2.86811 3.99998 2.49992C3.99998 2.13173 4.29846 1.83325 4.66665 1.83325C5.03484 1.83325 5.33331 2.13173 5.33331 2.49992ZM7.33331 3.16659C7.7015 3.16659 7.99998 2.86811 7.99998 2.49992C7.99998 2.13173 7.7015 1.83325 7.33331 1.83325C6.96512 1.83325 6.66665 2.13173 6.66665 2.49992C6.66665 2.86811 6.96512 3.16659 7.33331 3.16659ZM10.6666 2.49992C10.6666 2.86811 10.3682 3.16659 9.99998 3.16659C9.63179 3.16659 9.33331 2.86811 9.33331 2.49992C9.33331 2.13173 9.63179 1.83325 9.99998 1.83325C10.3682 1.83325 10.6666 2.13173 10.6666 2.49992ZM3.33331 4.49992C3.7015 4.49992 3.99998 4.20144 3.99998 3.83325C3.99998 3.46506 3.7015 3.16659 3.33331 3.16659C2.96512 3.16659 2.66665 3.46506 2.66665 3.83325C2.66665 4.20144 2.96512 4.49992 3.33331 4.49992ZM6.66665 3.83325C6.66665 4.20144 6.36817 4.49992 5.99998 4.49992C5.63179 4.49992 5.33331 4.20144 5.33331 3.83325C5.33331 3.46506 5.63179 3.16659 5.99998 3.16659C6.36817 3.16659 6.66665 3.46506 6.66665 3.83325ZM8.66665 4.49992C9.03484 4.49992 9.33331 4.20144 9.33331 3.83325C9.33331 3.46506 9.03484 3.16659 8.66665 3.16659C8.29846 3.16659 7.99998 3.46506 7.99998 3.83325C7.99998 4.20144 8.29846 4.49992 8.66665 4.49992ZM10.6666 5.16659C10.6666 5.53478 10.3682 5.83325 9.99998 5.83325C9.63179 5.83325 9.33331 5.53478 9.33331 5.16659C9.33331 4.7984 9.63179 4.49992 9.99998 4.49992C10.3682 4.49992 10.6666 4.7984 10.6666 5.16659ZM7.33331 5.83325C7.7015 5.83325 7.99998 5.53478 7.99998 5.16659C7.99998 4.7984 7.7015 4.49992 7.33331 4.49992C6.96512 4.49992 6.66665 4.7984 6.66665 5.16659C6.66665 5.53478 6.96512 5.83325 7.33331 5.83325ZM5.33331 5.16659C5.33331 5.53478 5.03484 5.83325 4.66665 5.83325C4.29846 5.83325 3.99998 5.53478 3.99998 5.16659C3.99998 4.7984 4.29846 4.49992 4.66665 4.49992C5.03484 4.49992 5.33331 4.7984 5.33331 5.16659ZM1.99998 5.83325C2.36817 5.83325 2.66665 5.53478 2.66665 5.16659C2.66665 4.7984 2.36817 4.49992 1.99998 4.49992C1.63179 4.49992 1.33331 4.7984 1.33331 5.16659C1.33331 5.53478 1.63179 5.83325 1.99998 5.83325ZM3.99998 6.49992C3.99998 6.86811 3.7015 7.16659 3.33331 7.16659C2.96512 7.16659 2.66665 6.86811 2.66665 6.49992C2.66665 6.13173 2.96512 5.83325 3.33331 5.83325C3.7015 5.83325 3.99998 6.13173 3.99998 6.49992ZM5.99998 7.16659C6.36817 7.16659 6.66665 6.86811 6.66665 6.49992C6.66665 6.13173 6.36817 5.83325 5.99998 5.83325C5.63179 5.83325 5.33331 6.13173 5.33331 6.49992C5.33331 6.86811 5.63179 7.16659 5.99998 7.16659ZM9.33331 6.49992C9.33331 6.86811 9.03484 7.16659 8.66665 7.16659C8.29846 7.16659 7.99998 6.86811 7.99998 6.49992C7.99998 6.13173 8.29846 5.83325 8.66665 5.83325C9.03484 5.83325 9.33331 6.13173 9.33331 6.49992ZM9.99998 8.49992C10.3682 8.49992 10.6666 8.20144 10.6666 7.83325C10.6666 7.46506 10.3682 7.16659 9.99998 7.16659C9.63179 7.16659 9.33331 7.46506 9.33331 7.83325C9.33331 8.20144 9.63179 8.49992 9.99998 8.49992ZM7.99998 7.83325C7.99998 8.20144 7.7015 8.49992 7.33331 8.49992C6.96512 8.49992 6.66665 8.20144 6.66665 7.83325C6.66665 7.46506 6.96512 7.16659 7.33331 7.16659C7.7015 7.16659 7.99998 7.46506 7.99998 7.83325ZM4.66665 8.49992C5.03484 8.49992 5.33331 8.20144 5.33331 7.83325C5.33331 7.46506 5.03484 7.16659 4.66665 7.16659C4.29846 7.16659 3.99998 7.46506 3.99998 7.83325C3.99998 8.20144 4.29846 8.49992 4.66665 8.49992ZM2.66665 7.83325C2.66665 8.20144 2.36817 8.49992 1.99998 8.49992C1.63179 8.49992 1.33331 8.20144 1.33331 7.83325C1.33331 7.46506 1.63179 7.16659 1.99998 7.16659C2.36817 7.16659 2.66665 7.46506 2.66665 7.83325Z" fill="url(#paint0_linear_326_29451)"/>
</g>
</g>
<defs>
<filter id="filter0_d_326_29451" x="1.33331" y="1.83325" width="9.33331" height="7.66675" filterUnits="userSpaceOnUse" color-interpolation-filters="sRGB">
<feFlood flood-opacity="0" result="BackgroundImageFix"/>
<feColorMatrix in="SourceAlpha" type="matrix" values="0 0 0 0 0 0 0 0 0 0 0 0 0 0 0 0 0 0 127 0" result="hardAlpha"/>
<feOffset dy="1"/>
<feColorMatrix type="matrix" values="0 0 0 0 0 0 0 0 0 0 0 0 0 0 0 0 0 0 0.06 0"/>
<feBlend mode="normal" in2="BackgroundImageFix" result="effect1_dropShadow_326_29451"/>
<feBlend mode="normal" in="SourceGraphic" in2="effect1_dropShadow_326_29451" result="shape"/>
</filter>
<linearGradient id="paint0_linear_326_29451" x1="1.33331" y1="1.83325" x2="1.33331" y2="8.49992" gradientUnits="userSpaceOnUse">
<stop stop-color="white"/>
<stop offset="1" stop-color="#F0F0F0"/>
</linearGradient>
</defs>
</svg>
