<svg width="28" height="21" viewBox="0 0 28 21" fill="none" xmlns="http://www.w3.org/2000/svg">
<rect x="0.25" y="0.75" width="27.5" height="19.5" rx="1.75" fill="white" stroke="#F5F5F5" stroke-width="0.5"/>
<mask id="mask0_326_29447" style="mask-type:alpha" maskUnits="userSpaceOnUse" x="0" y="0" width="28" height="21">
<rect x="0.25" y="0.75" width="27.5" height="19.5" rx="1.75" fill="white" stroke="white" stroke-width="0.5"/>
</mask>
<g mask="url(#mask0_326_29447)">
<path fill-rule="evenodd" clip-rule="evenodd" d="M0 7.16667H28V0.5H0V7.16667Z" fill="#04AAC8"/>
<path fill-rule="evenodd" clip-rule="evenodd" d="M0 20.4999H28V13.8333H0V20.4999Z" fill="#23C840"/>
<path fill-rule="evenodd" clip-rule="evenodd" d="M4.66669 5.83325C5.07797 5.83325 5.46025 5.70911 5.77811 5.49625C5.74128 5.49868 5.70413 5.49992 5.66669 5.49992C4.74621 5.49992 4.00002 4.75373 4.00002 3.83325C4.00002 2.91278 4.74621 2.16659 5.66669 2.16659C5.70413 2.16659 5.74128 2.16782 5.77811 2.17025C5.46025 1.95739 5.07797 1.83325 4.66669 1.83325C3.56212 1.83325 2.66669 2.72868 2.66669 3.83325C2.66669 4.93782 3.56212 5.83325 4.66669 5.83325ZM8.00002 5.16659C8.00002 5.53478 7.70154 5.83325 7.33335 5.83325C6.96516 5.83325 6.66669 5.53478 6.66669 5.16659C6.66669 4.7984 6.96516 4.49992 7.33335 4.49992C7.70154 4.49992 8.00002 4.7984 8.00002 5.16659ZM10 3.16659C10.3682 3.16659 10.6667 2.86811 10.6667 2.49992C10.6667 2.13173 10.3682 1.83325 10 1.83325C9.63183 1.83325 9.33335 2.13173 9.33335 2.49992C9.33335 2.86811 9.63183 3.16659 10 3.16659ZM13.3334 2.49992C13.3334 2.86811 13.0349 3.16659 12.6667 3.16659C12.2985 3.16659 12 2.86811 12 2.49992C12 2.13173 12.2985 1.83325 12.6667 1.83325C13.0349 1.83325 13.3334 2.13173 13.3334 2.49992ZM12.6667 5.83325C13.0349 5.83325 13.3334 5.53478 13.3334 5.16659C13.3334 4.7984 13.0349 4.49992 12.6667 4.49992C12.2985 4.49992 12 4.7984 12 5.16659C12 5.53478 12.2985 5.83325 12.6667 5.83325ZM10.6667 5.16659C10.6667 5.53478 10.3682 5.83325 10 5.83325C9.63183 5.83325 9.33335 5.53478 9.33335 5.16659C9.33335 4.7984 9.63183 4.49992 10 4.49992C10.3682 4.49992 10.6667 4.7984 10.6667 5.16659Z" fill="white"/>
</g>
</svg>
